<svg width="164" height="77" viewBox="0 0 164 77" fill="none" xmlns="http://www.w3.org/2000/svg">
<path d="M67.6265 43.0716C65.2111 43.0716 62.9928 44.2795 62.3581 45.9501L57.0836 59.7343L48.42 2.84764C48.0071 0.154284 44.8522 0.00881622 44.4949 0C44.4086 0 44.1683 0 43.8602 0.0352649C43.5459 0.00440811 43.3056 0 43.2255 0C42.8681 0.00881622 39.7071 0.154284 39.3004 2.84764L30.6307 59.7343L25.3561 45.9501C24.7153 44.2839 22.5031 43.0716 20.0877 43.0716H0V48.6744H18.2761L28.2029 74.6117C28.93 76.5116 31.0004 77.0758 32.5532 76.9921C34.0998 76.9039 36.0161 76.106 36.3181 74.1488L43.8602 24.6281L51.4023 74.1488C51.6981 76.106 53.6144 76.9039 55.1672 76.9921C56.7138 77.0758 58.7842 76.5116 59.5175 74.6117L69.4443 48.6744H162.643V43.0716H67.6265Z" fill="black"/>
<path d="M70.0851 2.31372V31.7246C70.0851 34.4489 71.7612 35.4275 74.4231 35.4275C77.085 35.4275 78.7611 34.4444 78.7611 31.7246V2.31372H86.6791V31.3455C86.6791 37.4464 82.4151 40.9332 74.189 40.9332C65.9629 40.9332 61.705 37.4464 61.705 31.3455V2.31372H70.079H70.0851Z" fill="black"/>
<path d="M100.765 7.76215V34.9955H105.485C108.153 34.9955 109.749 34.0169 109.749 31.2926V11.465C109.749 8.74075 108.147 7.76215 105.485 7.76215H100.765ZM92.3911 2.31372H105.639C114.013 2.31372 118.123 5.63744 118.123 11.7383V31.0193C118.123 37.1202 114.013 40.4439 105.639 40.4439H92.3911V2.31372Z" fill="black"/>
<path d="M131.827 2.31372H123.453V40.4395H131.827V2.31372Z" fill="black"/>
<path d="M145.605 31.6728C145.605 34.397 147.281 35.4329 149.949 35.4329C152.617 35.4329 154.287 34.397 154.287 31.6728V11.0825C154.287 8.35834 152.611 7.32684 149.949 7.32684C147.287 7.32684 145.605 8.36275 145.605 11.0825V31.6728ZM137.231 11.4661C137.231 5.36523 141.723 1.87842 149.949 1.87842C158.175 1.87842 162.661 5.36523 162.661 11.4661V31.2937C162.661 37.3946 158.169 40.8814 149.949 40.8814C141.729 40.8814 137.231 37.3946 137.231 31.2937V11.4661Z" fill="black"/>
<path d="M74.2629 62.2644V54.3695H71.8659V53.77H77.7628V54.3695H75.3474V62.2644H74.2629Z" fill="black"/>
<path d="M74.2629 62.2644V54.3695H71.8659V53.77H77.7628V54.3695H75.3474V62.2644H74.2629Z" stroke="black" stroke-miterlimit="10"/>
<path d="M80.8437 62.2644V53.77H85.2433V54.3695H81.959V57.5874H84.3005V58.156H81.959V61.6605H85.2433V62.2644H80.8437Z" fill="black"/>
<path d="M80.8437 62.2644V53.77H85.2433V54.3695H81.959V57.5874H84.3005V58.156H81.959V61.6605H85.2433V62.2644H80.8437Z" stroke="black" stroke-miterlimit="10"/>
<path d="M88.7802 59.8007V56.2478C88.7802 54.8107 89.5135 53.6558 91.9043 53.6558C94.1164 53.6558 94.7881 54.8107 94.7881 56.2478V56.5916H93.7529V56.0803C93.7529 55.0444 93.3277 54.2597 91.9043 54.2597C90.3022 54.2597 89.8647 55.0444 89.8647 56.0803V59.9726C89.8647 61.0086 90.3022 61.7976 91.9043 61.7976C93.3339 61.7976 93.7529 61.0086 93.7529 59.9726V59.3908H94.7881V59.8051C94.7881 61.2334 94.1719 62.3971 91.9043 62.3971C89.458 62.3971 88.7802 61.229 88.7802 59.8051" fill="black"/>
<path d="M88.7802 59.8007V56.2478C88.7802 54.8107 89.5135 53.6558 91.9043 53.6558C94.1164 53.6558 94.7881 54.8107 94.7881 56.2478V56.5916H93.7529V56.0803C93.7529 55.0444 93.3277 54.2597 91.9043 54.2597C90.3022 54.2597 89.8647 55.0444 89.8647 56.0803V59.9726C89.8647 61.0086 90.3022 61.7976 91.9043 61.7976C93.3339 61.7976 93.7529 61.0086 93.7529 59.9726V59.3908H94.7881V59.8051C94.7881 61.2334 94.1719 62.3971 91.9043 62.3971C89.458 62.3971 88.7802 61.229 88.7802 59.8051" stroke="black" stroke-miterlimit="10"/>
<path d="M98.861 62.2644V53.77H99.9455V57.6138H103.735V53.77H104.82V62.2644H103.735V58.1384H99.9455V62.2644H98.861Z" fill="black"/>
<path d="M98.861 62.2644V53.77H99.9455V57.6138H103.735V53.77H104.82V62.2644H103.735V58.1384H99.9455V62.2644H98.861Z" stroke="black" stroke-miterlimit="10"/>
<path d="M109.108 62.2644V53.77H109.946L113.859 60.4967V53.77H114.777V62.2644H113.964L110.045 55.6787V62.2644H109.108Z" fill="black"/>
<path d="M109.108 62.2644V53.77H109.946L113.859 60.4967V53.77H114.777V62.2644H113.964L110.045 55.6787V62.2644H109.108Z" stroke="black" stroke-miterlimit="10"/>
<path d="M124.057 59.9682V56.0759C124.057 55.0708 123.607 54.2553 122.011 54.2553C120.415 54.2553 119.966 55.0708 119.966 56.0759V59.9682C119.966 60.9777 120.415 61.7932 122.011 61.7932C123.607 61.7932 124.057 60.9777 124.057 59.9682ZM118.887 59.8007V56.2478C118.887 54.8107 119.633 53.6558 122.011 53.6558C124.39 53.6558 125.141 54.8107 125.141 56.2478V59.8007C125.141 61.229 124.451 62.3927 122.011 62.3927C119.571 62.3927 118.887 61.2246 118.887 59.8007Z" fill="black"/>
<path d="M124.057 59.9682V56.0759C124.057 55.0708 123.607 54.2553 122.011 54.2553C120.415 54.2553 119.966 55.0708 119.966 56.0759V59.9682C119.966 60.9777 120.415 61.7932 122.011 61.7932C123.607 61.7932 124.057 60.9777 124.057 59.9682ZM118.887 59.8007V56.2478C118.887 54.8107 119.633 53.6558 122.011 53.6558C124.39 53.6558 125.141 54.8107 125.141 56.2478V59.8007C125.141 61.229 124.451 62.3927 122.011 62.3927C119.571 62.3927 118.887 61.2246 118.887 59.8007Z" stroke="black" stroke-miterlimit="10"/>
<path d="M129.245 62.2644V53.77H130.354V61.6605H133.867V62.2644H129.245Z" fill="black"/>
<path d="M129.245 62.2644V53.77H130.354V61.6605H133.867V62.2644H129.245Z" stroke="black" stroke-miterlimit="10"/>
<path d="M142.198 59.9682V56.0759C142.198 55.0708 141.748 54.2553 140.152 54.2553C138.556 54.2553 138.106 55.0708 138.106 56.0759V59.9682C138.106 60.9777 138.556 61.7932 140.152 61.7932C141.748 61.7932 142.198 60.9777 142.198 59.9682ZM137.028 59.8007V56.2478C137.028 54.8107 137.773 53.6558 140.152 53.6558C142.53 53.6558 143.282 54.8107 143.282 56.2478V59.8007C143.282 61.229 142.592 62.3927 140.152 62.3927C137.712 62.3927 137.028 61.2246 137.028 59.8007Z" fill="black"/>
<path d="M142.198 59.9682V56.0759C142.198 55.0708 141.748 54.2553 140.152 54.2553C138.556 54.2553 138.106 55.0708 138.106 56.0759V59.9682C138.106 60.9777 138.556 61.7932 140.152 61.7932C141.748 61.7932 142.198 60.9777 142.198 59.9682ZM137.028 59.8007V56.2478C137.028 54.8107 137.773 53.6558 140.152 53.6558C142.53 53.6558 143.282 54.8107 143.282 56.2478V59.8007C143.282 61.229 142.592 62.3927 140.152 62.3927C137.712 62.3927 137.028 61.2246 137.028 59.8007Z" stroke="black" stroke-miterlimit="10"/>
<path d="M147.207 59.8888V56.2874C147.207 54.9297 147.848 53.6514 150.454 53.6514C152.913 53.6514 153.4 54.9738 153.412 56.4814V56.5387H152.328V56.477C152.328 55.3705 152.235 54.2509 150.436 54.2509C148.784 54.2509 148.285 55.0884 148.285 55.9656V60.2062C148.285 60.9953 148.698 61.7843 150.399 61.7843C151.983 61.7843 152.321 60.9512 152.321 60.2062V58.7692H150.818V58.2005H153.406V62.2516H152.925L152.605 61.4229C152.278 62.0136 151.366 62.3838 150.38 62.3838C147.361 62.3838 147.195 60.6691 147.195 59.88" fill="black"/>
<path d="M147.207 59.8888V56.2874C147.207 54.9297 147.848 53.6514 150.454 53.6514C152.913 53.6514 153.4 54.9738 153.412 56.4814V56.5387H152.328V56.477C152.328 55.3705 152.235 54.2509 150.436 54.2509C148.784 54.2509 148.285 55.0884 148.285 55.9656V60.2062C148.285 60.9953 148.698 61.7843 150.399 61.7843C151.983 61.7843 152.321 60.9512 152.321 60.2062V58.7692H150.818V58.2005H153.406V62.2516H152.925L152.605 61.4229C152.278 62.0136 151.366 62.3838 150.38 62.3838C147.361 62.3838 147.195 60.6691 147.195 59.88" stroke="black" stroke-miterlimit="10"/>
<path d="M159.254 62.2644V59.6283L156.524 53.77H157.75L159.796 58.8657C160.683 56.6661 160.942 55.974 161.842 53.77H163L160.357 59.6283V62.2644H159.254Z" fill="black"/>
<path d="M159.254 62.2644V59.6283L156.524 53.77H157.75L159.796 58.8657C160.683 56.6661 160.942 55.974 161.842 53.77H163L160.357 59.6283V62.2644H159.254Z" stroke="black" stroke-miterlimit="10"/>
</svg>
