<svg width="152" height="55" viewBox="0 0 152 55" fill="none" xmlns="http://www.w3.org/2000/svg">
<path d="M62.6479 30.7655C60.4103 30.7655 58.3553 31.6282 57.7674 32.8215L52.8811 42.6674L44.8553 2.03403C44.4729 0.110203 41.5503 0.0062973 41.2192 0C41.1393 0 40.9166 0 40.6312 0.0251892C40.3401 0.00314865 40.1175 0 40.0433 0C39.7122 0.0062973 36.7839 0.110203 36.4071 2.03403L28.3756 42.6674L23.4894 32.8215C22.8957 31.6313 20.8465 30.7655 18.6089 30.7655H0V34.7674H16.9306L26.1266 53.2941C26.8002 54.6511 28.7181 55.0542 30.1566 54.9943C31.5894 54.9314 33.3646 54.3614 33.6443 52.9634L40.6312 17.5915L47.6181 52.9634C47.8921 54.3614 49.6674 54.9314 51.1058 54.9943C52.5386 55.0542 54.4566 54.6511 55.1359 53.2941L64.3318 34.7674H150.669V30.7655H62.6479Z" fill="black"/>
<path d="M64.9255 1.65283V22.6606C64.9255 24.6065 66.4781 25.3055 68.9441 25.3055C71.41 25.3055 72.9627 24.6033 72.9627 22.6606V1.65283H80.2978V22.3898C80.2978 26.7476 76.3477 29.2382 68.7272 29.2382C61.1067 29.2382 57.1623 26.7476 57.1623 22.3898V1.65283H64.9198H64.9255Z" fill="black"/>
<path d="M93.3468 5.54456V24.9969H97.7193C100.191 24.9969 101.669 24.2979 101.669 22.3521V8.18943C101.669 6.24357 100.185 5.54456 97.7193 5.54456H93.3468ZM85.5893 1.65283H97.862C105.62 1.65283 109.427 4.02691 109.427 8.38465V22.1568C109.427 26.5146 105.62 28.8887 97.862 28.8887H85.5893V1.65283Z" fill="black"/>
<path d="M122.122 1.65283H114.365V28.8855H122.122V1.65283Z" fill="black"/>
<path d="M134.886 22.6233C134.886 24.5691 136.438 25.3091 138.91 25.3091C141.382 25.3091 142.929 24.5691 142.929 22.6233V7.91594C142.929 5.97007 141.376 5.23329 138.91 5.23329C136.444 5.23329 134.886 5.97322 134.886 7.91594V22.6233ZM127.128 8.18987C127.128 3.83214 131.289 1.34155 138.91 1.34155C146.53 1.34155 150.686 3.83214 150.686 8.18987V22.3525C150.686 26.7102 146.525 29.2008 138.91 29.2008C131.295 29.2008 127.128 26.7102 127.128 22.3525V8.18987Z" fill="black"/>
<path d="M68.7957 44.4746V38.8354H66.5752V38.4072H72.038V38.8354H69.8003V44.4746H68.7957Z" fill="black"/>
<path d="M68.7957 44.4746V38.8354H66.5752V38.4072H72.038V38.8354H69.8003V44.4746H68.7957Z" stroke="black" stroke-miterlimit="10"/>
<path d="M74.8921 44.4746V38.4072H78.9678V38.8354H75.9253V41.1339H78.0944V41.5401H75.9253V44.0432H78.9678V44.4746H74.8921Z" fill="black"/>
<path d="M74.8921 44.4746V38.4072H78.9678V38.8354H75.9253V41.1339H78.0944V41.5401H75.9253V44.0432H78.9678V44.4746H74.8921Z" stroke="black" stroke-miterlimit="10"/>
<path d="M82.2443 42.7147V40.1769C82.2443 39.1504 82.9236 38.3255 85.1384 38.3255C87.1876 38.3255 87.8098 39.1504 87.8098 40.1769V40.4225H86.8508V40.0573C86.8508 39.3173 86.457 38.7569 85.1384 38.7569C83.6542 38.7569 83.2489 39.3173 83.2489 40.0573V42.8375C83.2489 43.5774 83.6542 44.1411 85.1384 44.1411C86.4627 44.1411 86.8508 43.5774 86.8508 42.8375V42.4219H87.8098V42.7179C87.8098 43.738 87.239 44.5693 85.1384 44.5693C82.8722 44.5693 82.2443 43.7349 82.2443 42.7179" fill="black"/>
<path d="M82.2443 42.7147V40.1769C82.2443 39.1504 82.9236 38.3255 85.1384 38.3255C87.1876 38.3255 87.8098 39.1504 87.8098 40.1769V40.4225H86.8508V40.0573C86.8508 39.3173 86.457 38.7569 85.1384 38.7569C83.6542 38.7569 83.2489 39.3173 83.2489 40.0573V42.8375C83.2489 43.5774 83.6542 44.1411 85.1384 44.1411C86.4627 44.1411 86.8508 43.5774 86.8508 42.8375V42.4219H87.8098V42.7179C87.8098 43.738 87.239 44.5693 85.1384 44.5693C82.8722 44.5693 82.2443 43.7349 82.2443 42.7179" stroke="black" stroke-miterlimit="10"/>
<path d="M91.583 44.4746V38.4072H92.5876V41.1528H96.0982V38.4072H97.1028V44.4746H96.0982V41.5275H92.5876V44.4746H91.583Z" fill="black"/>
<path d="M91.583 44.4746V38.4072H92.5876V41.1528H96.0982V38.4072H97.1028V44.4746H96.0982V41.5275H92.5876V44.4746H91.583Z" stroke="black" stroke-miterlimit="10"/>
<path d="M101.076 44.4746V38.4072H101.852L105.477 43.212V38.4072H106.327V44.4746H105.574L101.943 39.7705V44.4746H101.076Z" fill="black"/>
<path d="M101.076 44.4746V38.4072H101.852L105.477 43.212V38.4072H106.327V44.4746H105.574L101.943 39.7705V44.4746H101.076Z" stroke="black" stroke-miterlimit="10"/>
<path d="M114.924 42.8344V40.0541C114.924 39.3362 114.507 38.7537 113.029 38.7537C111.55 38.7537 111.134 39.3362 111.134 40.0541V42.8344C111.134 43.5554 111.55 44.1379 113.029 44.1379C114.507 44.1379 114.924 43.5554 114.924 42.8344ZM110.135 42.7147V40.1769C110.135 39.1504 110.825 38.3255 113.029 38.3255C115.232 38.3255 115.929 39.1504 115.929 40.1769V42.7147C115.929 43.7349 115.289 44.5661 113.029 44.5661C110.768 44.5661 110.135 43.7317 110.135 42.7147Z" fill="black"/>
<path d="M114.924 42.8344V40.0541C114.924 39.3362 114.507 38.7537 113.029 38.7537C111.55 38.7537 111.134 39.3362 111.134 40.0541V42.8344C111.134 43.5554 111.55 44.1379 113.029 44.1379C114.507 44.1379 114.924 43.5554 114.924 42.8344ZM110.135 42.7147V40.1769C110.135 39.1504 110.825 38.3255 113.029 38.3255C115.232 38.3255 115.929 39.1504 115.929 40.1769V42.7147C115.929 43.7349 115.289 44.5661 113.029 44.5661C110.768 44.5661 110.135 43.7317 110.135 42.7147Z" stroke="black" stroke-miterlimit="10"/>
<path d="M119.73 44.4746V38.4072H120.758V44.0432H124.011V44.4746H119.73Z" fill="black"/>
<path d="M119.73 44.4746V38.4072H120.758V44.0432H124.011V44.4746H119.73Z" stroke="black" stroke-miterlimit="10"/>
<path d="M131.729 42.8344V40.0541C131.729 39.3362 131.312 38.7537 129.834 38.7537C128.355 38.7537 127.939 39.3362 127.939 40.0541V42.8344C127.939 43.5554 128.355 44.1379 129.834 44.1379C131.312 44.1379 131.729 43.5554 131.729 42.8344ZM126.94 42.7147V40.1769C126.94 39.1504 127.63 38.3255 129.834 38.3255C132.037 38.3255 132.734 39.1504 132.734 40.1769V42.7147C132.734 43.7349 132.094 44.5661 129.834 44.5661C127.573 44.5661 126.94 43.7317 126.94 42.7147Z" fill="black"/>
<path d="M131.729 42.8344V40.0541C131.729 39.3362 131.312 38.7537 129.834 38.7537C128.355 38.7537 127.939 39.3362 127.939 40.0541V42.8344C127.939 43.5554 128.355 44.1379 129.834 44.1379C131.312 44.1379 131.729 43.5554 131.729 42.8344ZM126.94 42.7147V40.1769C126.94 39.1504 127.63 38.3255 129.834 38.3255C132.037 38.3255 132.734 39.1504 132.734 40.1769V42.7147C132.734 43.7349 132.094 44.5661 129.834 44.5661C127.573 44.5661 126.94 43.7317 126.94 42.7147Z" stroke="black" stroke-miterlimit="10"/>
<path d="M136.37 42.7777V40.2052C136.37 39.2354 136.963 38.3223 139.378 38.3223C141.656 38.3223 142.107 39.2669 142.118 40.3438V40.3847H141.113V40.3406C141.113 39.5503 141.028 38.7505 139.361 38.7505C137.831 38.7505 137.369 39.3488 137.369 39.9754V43.0044C137.369 43.568 137.751 44.1316 139.327 44.1316C140.794 44.1316 141.108 43.5365 141.108 43.0044V41.9779H139.715V41.5717H142.112V44.4653H141.667L141.37 43.8734C141.068 44.2953 140.223 44.5598 139.31 44.5598C136.512 44.5598 136.358 43.335 136.358 42.7714" fill="black"/>
<path d="M136.37 42.7777V40.2052C136.37 39.2354 136.963 38.3223 139.378 38.3223C141.656 38.3223 142.107 39.2669 142.118 40.3438V40.3847H141.113V40.3406C141.113 39.5503 141.028 38.7505 139.361 38.7505C137.831 38.7505 137.369 39.3488 137.369 39.9754V43.0044C137.369 43.568 137.751 44.1316 139.327 44.1316C140.794 44.1316 141.108 43.5365 141.108 43.0044V41.9779H139.715V41.5717H142.112V44.4653H141.667L141.37 43.8734C141.068 44.2953 140.223 44.5598 139.31 44.5598C136.512 44.5598 136.358 43.335 136.358 42.7714" stroke="black" stroke-miterlimit="10"/>
<path d="M147.529 44.4746V42.5917L145.001 38.4072H146.137L148.032 42.047C148.854 40.4758 149.093 39.9815 149.927 38.4072H151L148.551 42.5917V44.4746H147.529Z" fill="black"/>
<path d="M147.529 44.4746V42.5917L145.001 38.4072H146.137L148.032 42.047C148.854 40.4758 149.093 39.9815 149.927 38.4072H151L148.551 42.5917V44.4746H147.529Z" stroke="black" stroke-miterlimit="10"/>
</svg>
