<svg width="152" height="46" viewBox="0 0 152 46" fill="none" xmlns="http://www.w3.org/2000/svg">
<path d="M62.6479 25.7311C60.4103 25.7311 58.3553 26.4527 57.7674 27.4507L52.8811 35.6854L44.8553 1.70119C44.4729 0.0921696 41.5503 0.00526683 41.2192 0C41.1393 0 40.9166 0 40.6312 0.0210673C40.3401 0.00263342 40.1175 0 40.0433 0C39.7122 0.00526683 36.7839 0.0921696 36.4071 1.70119L28.3756 35.6854L23.4894 27.4507C22.8957 26.4553 20.8465 25.7311 18.6089 25.7311H0V29.0782H16.9306L26.1266 44.5732C26.8002 45.7082 28.7181 46.0453 30.1566 45.9953C31.5894 45.9426 33.3646 45.4659 33.6443 44.2967L40.6312 14.7129L47.6181 44.2967C47.8921 45.4659 49.6674 45.9426 51.1058 45.9953C52.5386 46.0453 54.4566 45.7082 55.1359 44.5732L64.3318 29.0782H150.669V25.7311H62.6479Z" fill="black"/>
<path d="M64.9255 1.38257V18.9527C64.9255 20.5802 66.4781 21.1648 68.9441 21.1648C71.41 21.1648 72.9627 20.5775 72.9627 18.9527V1.38257H80.2978V18.7263C80.2978 22.3709 76.3477 24.4539 68.7272 24.4539C61.1067 24.4539 57.1623 22.3709 57.1623 18.7263V1.38257H64.9198H64.9255Z" fill="black"/>
<path d="M93.3468 4.63747V20.9067H97.7193C100.191 20.9067 101.669 20.3221 101.669 18.6946V6.84954C101.669 5.22209 100.185 4.63747 97.7193 4.63747H93.3468ZM85.5893 1.38257H97.862C105.62 1.38257 109.427 3.36816 109.427 7.01281V18.5314C109.427 22.176 105.62 24.1616 97.862 24.1616H85.5893V1.38257Z" fill="black"/>
<path d="M122.122 1.38257H114.365V24.159H122.122V1.38257Z" fill="black"/>
<path d="M134.886 18.9211C134.886 20.5485 136.438 21.1674 138.91 21.1674C141.382 21.1674 142.929 20.5485 142.929 18.9211V6.6204C142.929 4.99295 141.376 4.37673 138.91 4.37673C136.444 4.37673 134.886 4.99558 134.886 6.6204V18.9211ZM127.128 6.84951C127.128 3.20486 131.289 1.12183 138.91 1.12183C146.53 1.12183 150.686 3.20486 150.686 6.84951V18.6946C150.686 22.3393 146.525 24.4223 138.91 24.4223C131.295 24.4223 127.128 22.3393 127.128 18.6946V6.84951Z" fill="black"/>
<path d="M68.7957 37.197V32.4806H66.5752V32.1224H72.038V32.4806H69.8003V37.197H68.7957Z" fill="black"/>
<path d="M68.7957 37.197V32.4806H66.5752V32.1224H72.038V32.4806H69.8003V37.197H68.7957Z" stroke="black" stroke-miterlimit="10"/>
<path d="M74.8921 37.197V32.1224H78.9678V32.4806H75.9253V34.403H78.0944V34.7427H75.9253V36.8363H78.9678V37.197H74.8921Z" fill="black"/>
<path d="M74.8921 37.197V32.1224H78.9678V32.4806H75.9253V34.403H78.0944V34.7427H75.9253V36.8363H78.9678V37.197H74.8921Z" stroke="black" stroke-miterlimit="10"/>
<path d="M82.2443 35.7249V33.6024C82.2443 32.7439 82.9236 32.054 85.1384 32.054C87.1876 32.054 87.8098 32.7439 87.8098 33.6024V33.8078H86.8508V33.5023C86.8508 32.8835 86.457 32.4147 85.1384 32.4147C83.6542 32.4147 83.2489 32.8835 83.2489 33.5023V35.8276C83.2489 36.4465 83.6542 36.9179 85.1384 36.9179C86.4627 36.9179 86.8508 36.4465 86.8508 35.8276V35.48H87.8098V35.7276C87.8098 36.5808 87.239 37.276 85.1384 37.276C82.8722 37.276 82.2443 36.5782 82.2443 35.7276" fill="black"/>
<path d="M82.2443 35.7249V33.6024C82.2443 32.7439 82.9236 32.054 85.1384 32.054C87.1876 32.054 87.8098 32.7439 87.8098 33.6024V33.8078H86.8508V33.5023C86.8508 32.8835 86.457 32.4147 85.1384 32.4147C83.6542 32.4147 83.2489 32.8835 83.2489 33.5023V35.8276C83.2489 36.4465 83.6542 36.9179 85.1384 36.9179C86.4627 36.9179 86.8508 36.4465 86.8508 35.8276V35.48H87.8098V35.7276C87.8098 36.5808 87.239 37.276 85.1384 37.276C82.8722 37.276 82.2443 36.5782 82.2443 35.7276" stroke="black" stroke-miterlimit="10"/>
<path d="M91.583 37.197V32.1224H92.5876V34.4188H96.0982V32.1224H97.1028V37.197H96.0982V34.7322H92.5876V37.197H91.583Z" fill="black"/>
<path d="M91.583 37.197V32.1224H92.5876V34.4188H96.0982V32.1224H97.1028V37.197H96.0982V34.7322H92.5876V37.197H91.583Z" stroke="black" stroke-miterlimit="10"/>
<path d="M101.076 37.197V32.1224H101.852L105.477 36.141V32.1224H106.327V37.197H105.574L101.943 33.2627V37.197H101.076Z" fill="black"/>
<path d="M101.076 37.197V32.1224H101.852L105.477 36.141V32.1224H106.327V37.197H105.574L101.943 33.2627V37.197H101.076Z" stroke="black" stroke-miterlimit="10"/>
<path d="M114.924 35.825V33.4997C114.924 32.8993 114.507 32.4121 113.029 32.4121C111.55 32.4121 111.134 32.8993 111.134 33.4997V35.825C111.134 36.4281 111.55 36.9152 113.029 36.9152C114.507 36.9152 114.924 36.4281 114.924 35.825ZM110.135 35.7249V33.6024C110.135 32.7439 110.825 32.054 113.029 32.054C115.232 32.054 115.929 32.7439 115.929 33.6024V35.7249C115.929 36.5782 115.289 37.2734 113.029 37.2734C110.768 37.2734 110.135 36.5755 110.135 35.7249Z" fill="black"/>
<path d="M114.924 35.825V33.4997C114.924 32.8993 114.507 32.4121 113.029 32.4121C111.55 32.4121 111.134 32.8993 111.134 33.4997V35.825C111.134 36.4281 111.55 36.9152 113.029 36.9152C114.507 36.9152 114.924 36.4281 114.924 35.825ZM110.135 35.7249V33.6024C110.135 32.7439 110.825 32.054 113.029 32.054C115.232 32.054 115.929 32.7439 115.929 33.6024V35.7249C115.929 36.5782 115.289 37.2734 113.029 37.2734C110.768 37.2734 110.135 36.5755 110.135 35.7249Z" stroke="black" stroke-miterlimit="10"/>
<path d="M119.73 37.197V32.1224H120.758V36.8363H124.011V37.197H119.73Z" fill="black"/>
<path d="M119.73 37.197V32.1224H120.758V36.8363H124.011V37.197H119.73Z" stroke="black" stroke-miterlimit="10"/>
<path d="M131.729 35.825V33.4997C131.729 32.8993 131.312 32.4121 129.834 32.4121C128.355 32.4121 127.939 32.8993 127.939 33.4997V35.825C127.939 36.4281 128.355 36.9152 129.834 36.9152C131.312 36.9152 131.729 36.4281 131.729 35.825ZM126.94 35.7249V33.6024C126.94 32.7439 127.63 32.054 129.834 32.054C132.037 32.054 132.734 32.7439 132.734 33.6024V35.7249C132.734 36.5782 132.094 37.2734 129.834 37.2734C127.573 37.2734 126.94 36.5755 126.94 35.7249Z" fill="black"/>
<path d="M131.729 35.825V33.4997C131.729 32.8993 131.312 32.4121 129.834 32.4121C128.355 32.4121 127.939 32.8993 127.939 33.4997V35.825C127.939 36.4281 128.355 36.9152 129.834 36.9152C131.312 36.9152 131.729 36.4281 131.729 35.825ZM126.94 35.7249V33.6024C126.94 32.7439 127.63 32.054 129.834 32.054C132.037 32.054 132.734 32.7439 132.734 33.6024V35.7249C132.734 36.5782 132.094 37.2734 129.834 37.2734C127.573 37.2734 126.94 36.5755 126.94 35.7249Z" stroke="black" stroke-miterlimit="10"/>
<path d="M136.37 35.7776V33.6261C136.37 32.815 136.963 32.0513 139.378 32.0513C141.656 32.0513 142.107 32.8414 142.118 33.742V33.7762H141.113V33.7393C141.113 33.0784 141.028 32.4095 139.361 32.4095C137.831 32.4095 137.369 32.9098 137.369 33.4339V35.9672C137.369 36.4386 137.751 36.91 139.327 36.91C140.794 36.91 141.108 36.4123 141.108 35.9672V35.1087H139.715V34.769H142.112V37.1891H141.667L141.37 36.694C141.068 37.0469 140.223 37.2681 139.31 37.2681C136.512 37.2681 136.358 36.2437 136.358 35.7723" fill="black"/>
<path d="M136.37 35.7776V33.6261C136.37 32.815 136.963 32.0513 139.378 32.0513C141.656 32.0513 142.107 32.8414 142.118 33.742V33.7762H141.113V33.7393C141.113 33.0784 141.028 32.4095 139.361 32.4095C137.831 32.4095 137.369 32.9098 137.369 33.4339V35.9672C137.369 36.4386 137.751 36.91 139.327 36.91C140.794 36.91 141.108 36.4123 141.108 35.9672V35.1087H139.715V34.769H142.112V37.1891H141.667L141.37 36.694C141.068 37.0469 140.223 37.2681 139.31 37.2681C136.512 37.2681 136.358 36.2437 136.358 35.7723" stroke="black" stroke-miterlimit="10"/>
<path d="M147.529 37.197V35.6222L145.001 32.1224H146.137L148.032 35.1667C148.854 33.8526 149.093 33.4391 149.927 32.1224H151L148.551 35.6222V37.197H147.529Z" fill="black"/>
<path d="M147.529 37.197V35.6222L145.001 32.1224H146.137L148.032 35.1667C148.854 33.8526 149.093 33.4391 149.927 32.1224H151L148.551 35.6222V37.197H147.529Z" stroke="black" stroke-miterlimit="10"/>
</svg>
