<svg width="266" height="175" viewBox="0 0 266 175" fill="none" xmlns="http://www.w3.org/2000/svg">
<path d="M109.75 97.71C105.83 97.71 102.23 100.45 101.2 104.24L92.64 135.51L78.58 6.46C77.91 0.35 72.79 0.02 72.21 0C72.07 0 71.68 0 71.18 0.08C70.67 0.01 70.28 0 70.15 0C69.57 0.02 64.44 0.35 63.78 6.46L49.71 135.51L41.15 104.24C40.11 100.46 36.52 97.71 32.6 97.71H0V110.42H29.66L45.77 169.26C46.95 173.57 50.31 174.85 52.83 174.66C55.34 174.46 58.45 172.65 58.94 168.21L71.18 55.87L83.42 168.21C83.9 172.65 87.01 174.46 89.53 174.66C92.04 174.85 95.4 173.57 96.59 169.26L112.7 110.42H263.95V97.71H109.75Z" fill="black"/>
<path d="M113.74 5.25V71.97C113.74 78.15 116.46 80.37 120.78 80.37C125.1 80.37 127.82 78.14 127.82 71.97V5.25H140.67V71.11C140.67 84.95 133.75 92.86 120.4 92.86C107.05 92.86 100.14 84.95 100.14 71.11V5.25H113.73H113.74Z" fill="black"/>
<path d="M163.53 17.61V79.39H171.19C175.52 79.39 178.11 77.17 178.11 70.99V26.01C178.11 19.83 175.51 17.61 171.19 17.61H163.53ZM149.94 5.25H171.44C185.03 5.25 191.7 12.79 191.7 26.63V70.37C191.7 84.21 185.03 91.75 171.44 91.75H149.94V5.25Z" fill="black"/>
<path d="M213.94 5.25H200.35V91.74H213.94V5.25Z" fill="black"/>
<path d="M236.3 71.85C236.3 78.03 239.02 80.38 243.35 80.38C247.68 80.38 250.39 78.03 250.39 71.85V25.14C250.39 18.96 247.67 16.62 243.35 16.62C239.03 16.62 236.3 18.97 236.3 25.14V71.85ZM222.71 26.01C222.71 12.17 230 4.26001 243.35 4.26001C256.7 4.26001 263.98 12.17 263.98 26.01V70.99C263.98 84.83 256.69 92.74 243.35 92.74C230.01 92.74 222.71 84.83 222.71 70.99V26.01Z" fill="black"/>
<path d="M120.52 141.25V123.34H116.63V121.98H126.2V123.34H122.28V141.25H120.52Z" fill="black"/>
<path d="M120.52 141.25V123.34H116.63V121.98H126.2V123.34H122.28V141.25H120.52Z" stroke="black" stroke-miterlimit="10"/>
<path d="M131.2 141.25V121.98H138.34V123.34H133.01V130.64H136.81V131.93H133.01V139.88H138.34V141.25H131.2Z" fill="black"/>
<path d="M131.2 141.25V121.98H138.34V123.34H133.01V130.64H136.81V131.93H133.01V139.88H138.34V141.25H131.2Z" stroke="black" stroke-miterlimit="10"/>
<path d="M144.08 135.66V127.6C144.08 124.34 145.27 121.72 149.15 121.72C152.74 121.72 153.83 124.34 153.83 127.6V128.38H152.15V127.22C152.15 124.87 151.46 123.09 149.15 123.09C146.55 123.09 145.84 124.87 145.84 127.22V136.05C145.84 138.4 146.55 140.19 149.15 140.19C151.47 140.19 152.15 138.4 152.15 136.05V134.73H153.83V135.67C153.83 138.91 152.83 141.55 149.15 141.55C145.18 141.55 144.08 138.9 144.08 135.67" fill="black"/>
<path d="M144.08 135.66V127.6C144.08 124.34 145.27 121.72 149.15 121.72C152.74 121.72 153.83 124.34 153.83 127.6V128.38H152.15V127.22C152.15 124.87 151.46 123.09 149.15 123.09C146.55 123.09 145.84 124.87 145.84 127.22V136.05C145.84 138.4 146.55 140.19 149.15 140.19C151.47 140.19 152.15 138.4 152.15 136.05V134.73H153.83V135.67C153.83 138.91 152.83 141.55 149.15 141.55C145.18 141.55 144.08 138.9 144.08 135.67" stroke="black" stroke-miterlimit="10"/>
<path d="M160.44 141.25V121.98H162.2V130.7H168.35V121.98H170.11V141.25H168.35V131.89H162.2V141.25H160.44Z" fill="black"/>
<path d="M160.44 141.25V121.98H162.2V130.7H168.35V121.98H170.11V141.25H168.35V131.89H162.2V141.25H160.44Z" stroke="black" stroke-miterlimit="10"/>
<path d="M177.07 141.25V121.98H178.43L184.78 137.24V121.98H186.27V141.25H184.95L178.59 126.31V141.25H177.07Z" fill="black"/>
<path d="M177.07 141.25V121.98H178.43L184.78 137.24V121.98H186.27V141.25H184.95L178.59 126.31V141.25H177.07Z" stroke="black" stroke-miterlimit="10"/>
<path d="M201.33 136.04V127.21C201.33 124.93 200.6 123.08 198.01 123.08C195.42 123.08 194.69 124.93 194.69 127.21V136.04C194.69 138.33 195.42 140.18 198.01 140.18C200.6 140.18 201.33 138.33 201.33 136.04ZM192.94 135.66V127.6C192.94 124.34 194.15 121.72 198.01 121.72C201.87 121.72 203.09 124.34 203.09 127.6V135.66C203.09 138.9 201.97 141.54 198.01 141.54C194.05 141.54 192.94 138.89 192.94 135.66Z" fill="black"/>
<path d="M201.33 136.04V127.21C201.33 124.93 200.6 123.08 198.01 123.08C195.42 123.08 194.69 124.93 194.69 127.21V136.04C194.69 138.33 195.42 140.18 198.01 140.18C200.6 140.18 201.33 138.33 201.33 136.04ZM192.94 135.66V127.6C192.94 124.34 194.15 121.72 198.01 121.72C201.87 121.72 203.09 124.34 203.09 127.6V135.66C203.09 138.9 201.97 141.54 198.01 141.54C194.05 141.54 192.94 138.89 192.94 135.66Z" stroke="black" stroke-miterlimit="10"/>
<path d="M209.75 141.25V121.98H211.55V139.88H217.25V141.25H209.75Z" fill="black"/>
<path d="M209.75 141.25V121.98H211.55V139.88H217.25V141.25H209.75Z" stroke="black" stroke-miterlimit="10"/>
<path d="M230.77 136.04V127.21C230.77 124.93 230.04 123.08 227.45 123.08C224.86 123.08 224.13 124.93 224.13 127.21V136.04C224.13 138.33 224.86 140.18 227.45 140.18C230.04 140.18 230.77 138.33 230.77 136.04ZM222.38 135.66V127.6C222.38 124.34 223.59 121.72 227.45 121.72C231.31 121.72 232.53 124.34 232.53 127.6V135.66C232.53 138.9 231.41 141.54 227.45 141.54C223.49 141.54 222.38 138.89 222.38 135.66Z" fill="black"/>
<path d="M230.77 136.04V127.21C230.77 124.93 230.04 123.08 227.45 123.08C224.86 123.08 224.13 124.93 224.13 127.21V136.04C224.13 138.33 224.86 140.18 227.45 140.18C230.04 140.18 230.77 138.33 230.77 136.04ZM222.38 135.66V127.6C222.38 124.34 223.59 121.72 227.45 121.72C231.31 121.72 232.53 124.34 232.53 127.6V135.66C232.53 138.9 231.41 141.54 227.45 141.54C223.49 141.54 222.38 138.89 222.38 135.66Z" stroke="black" stroke-miterlimit="10"/>
<path d="M238.9 135.86V127.69C238.9 124.61 239.94 121.71 244.17 121.71C248.16 121.71 248.95 124.71 248.97 128.13V128.26H247.21V128.12C247.21 125.61 247.06 123.07 244.14 123.07C241.46 123.07 240.65 124.97 240.65 126.96V136.58C240.65 138.37 241.32 140.16 244.08 140.16C246.65 140.16 247.2 138.27 247.2 136.58V133.32H244.76V132.03H248.96V141.22H248.18L247.66 139.34C247.13 140.68 245.65 141.52 244.05 141.52C239.15 141.52 238.88 137.63 238.88 135.84" fill="black"/>
<path d="M238.9 135.86V127.69C238.9 124.61 239.94 121.71 244.17 121.71C248.16 121.71 248.95 124.71 248.97 128.13V128.26H247.21V128.12C247.21 125.61 247.06 123.07 244.14 123.07C241.46 123.07 240.65 124.97 240.65 126.96V136.58C240.65 138.37 241.32 140.16 244.08 140.16C246.65 140.16 247.2 138.27 247.2 136.58V133.32H244.76V132.03H248.96V141.22H248.18L247.66 139.34C247.13 140.68 245.65 141.52 244.05 141.52C239.15 141.52 238.88 137.63 238.88 135.84" stroke="black" stroke-miterlimit="10"/>
<path d="M258.45 141.25V135.27L254.02 121.98H256.01L259.33 133.54C260.77 128.55 261.19 126.98 262.65 121.98H264.53L260.24 135.27V141.25H258.45Z" fill="black"/>
<path d="M258.45 141.25V135.27L254.02 121.98H256.01L259.33 133.54C260.77 128.55 261.19 126.98 262.65 121.98H264.53L260.24 135.27V141.25H258.45Z" stroke="black" stroke-miterlimit="10"/>
</svg>
