<svg width="152" height="77" viewBox="0 0 152 77" fill="none" xmlns="http://www.w3.org/2000/svg">
<path d="M62.6479 43.0716C60.4103 43.0716 58.3553 44.2795 57.7674 45.9501L52.8811 59.7343L44.8553 2.84764C44.4729 0.154284 41.5503 0.00881622 41.2192 0C41.1393 0 40.9166 0 40.6312 0.0352649C40.3401 0.00440811 40.1175 0 40.0433 0C39.7122 0.00881622 36.7839 0.154284 36.4071 2.84764L28.3756 59.7343L23.4894 45.9501C22.8957 44.2839 20.8465 43.0716 18.6089 43.0716H0V48.6744H16.9306L26.1266 74.6117C26.8002 76.5116 28.7181 77.0758 30.1566 76.9921C31.5894 76.9039 33.3646 76.106 33.6443 74.1488L40.6312 24.6281L47.6181 74.1488C47.8921 76.106 49.6674 76.9039 51.1058 76.9921C52.5386 77.0758 54.4566 76.5116 55.1359 74.6117L64.3318 48.6744H150.669V43.0716H62.6479Z" fill="black"/>
<path d="M64.9255 2.31372V31.7246C64.9255 34.4489 66.4781 35.4275 68.9441 35.4275C71.41 35.4275 72.9627 34.4444 72.9627 31.7246V2.31372H80.2978V31.3455C80.2978 37.4464 76.3477 40.9332 68.7272 40.9332C61.1067 40.9332 57.1623 37.4464 57.1623 31.3455V2.31372H64.9198H64.9255Z" fill="black"/>
<path d="M93.3468 7.76215V34.9955H97.7193C100.191 34.9955 101.669 34.0169 101.669 31.2926V11.465C101.669 8.74075 100.185 7.76215 97.7193 7.76215H93.3468ZM85.5893 2.31372H97.862C105.62 2.31372 109.427 5.63744 109.427 11.7383V31.0193C109.427 37.1202 105.62 40.4439 97.862 40.4439H85.5893V2.31372Z" fill="black"/>
<path d="M122.122 2.31372H114.365V40.4395H122.122V2.31372Z" fill="black"/>
<path d="M134.886 31.6728C134.886 34.397 136.438 35.4329 138.91 35.4329C141.382 35.4329 142.929 34.397 142.929 31.6728V11.0825C142.929 8.35834 141.376 7.32684 138.91 7.32684C136.444 7.32684 134.886 8.36275 134.886 11.0825V31.6728ZM127.128 11.4661C127.128 5.36523 131.289 1.87842 138.91 1.87842C146.53 1.87842 150.686 5.36523 150.686 11.4661V31.2937C150.686 37.3946 146.525 40.8814 138.91 40.8814C131.295 40.8814 127.128 37.3946 127.128 31.2937V11.4661Z" fill="black"/>
<path d="M68.7957 62.2644V54.3695H66.5752V53.77H72.038V54.3695H69.8003V62.2644H68.7957Z" fill="black"/>
<path d="M68.7957 62.2644V54.3695H66.5752V53.77H72.038V54.3695H69.8003V62.2644H68.7957Z" stroke="black" stroke-miterlimit="10"/>
<path d="M74.8921 62.2644V53.77H78.9678V54.3695H75.9253V57.5874H78.0944V58.156H75.9253V61.6605H78.9678V62.2644H74.8921Z" fill="black"/>
<path d="M74.8921 62.2644V53.77H78.9678V54.3695H75.9253V57.5874H78.0944V58.156H75.9253V61.6605H78.9678V62.2644H74.8921Z" stroke="black" stroke-miterlimit="10"/>
<path d="M82.2443 59.8007V56.2478C82.2443 54.8107 82.9236 53.6558 85.1384 53.6558C87.1876 53.6558 87.8098 54.8107 87.8098 56.2478V56.5916H86.8508V56.0803C86.8508 55.0444 86.457 54.2597 85.1384 54.2597C83.6542 54.2597 83.2489 55.0444 83.2489 56.0803V59.9726C83.2489 61.0086 83.6542 61.7976 85.1384 61.7976C86.4627 61.7976 86.8508 61.0086 86.8508 59.9726V59.3908H87.8098V59.8051C87.8098 61.2334 87.239 62.3971 85.1384 62.3971C82.8722 62.3971 82.2443 61.229 82.2443 59.8051" fill="black"/>
<path d="M82.2443 59.8007V56.2478C82.2443 54.8107 82.9236 53.6558 85.1384 53.6558C87.1876 53.6558 87.8098 54.8107 87.8098 56.2478V56.5916H86.8508V56.0803C86.8508 55.0444 86.457 54.2597 85.1384 54.2597C83.6542 54.2597 83.2489 55.0444 83.2489 56.0803V59.9726C83.2489 61.0086 83.6542 61.7976 85.1384 61.7976C86.4627 61.7976 86.8508 61.0086 86.8508 59.9726V59.3908H87.8098V59.8051C87.8098 61.2334 87.239 62.3971 85.1384 62.3971C82.8722 62.3971 82.2443 61.229 82.2443 59.8051" stroke="black" stroke-miterlimit="10"/>
<path d="M91.583 62.2644V53.77H92.5876V57.6138H96.0982V53.77H97.1028V62.2644H96.0982V58.1384H92.5876V62.2644H91.583Z" fill="black"/>
<path d="M91.583 62.2644V53.77H92.5876V57.6138H96.0982V53.77H97.1028V62.2644H96.0982V58.1384H92.5876V62.2644H91.583Z" stroke="black" stroke-miterlimit="10"/>
<path d="M101.076 62.2644V53.77H101.852L105.477 60.4967V53.77H106.327V62.2644H105.574L101.943 55.6787V62.2644H101.076Z" fill="black"/>
<path d="M101.076 62.2644V53.77H101.852L105.477 60.4967V53.77H106.327V62.2644H105.574L101.943 55.6787V62.2644H101.076Z" stroke="black" stroke-miterlimit="10"/>
<path d="M114.924 59.9682V56.0759C114.924 55.0708 114.507 54.2553 113.029 54.2553C111.55 54.2553 111.134 55.0708 111.134 56.0759V59.9682C111.134 60.9777 111.55 61.7932 113.029 61.7932C114.507 61.7932 114.924 60.9777 114.924 59.9682ZM110.135 59.8007V56.2478C110.135 54.8107 110.825 53.6558 113.029 53.6558C115.232 53.6558 115.929 54.8107 115.929 56.2478V59.8007C115.929 61.229 115.289 62.3927 113.029 62.3927C110.768 62.3927 110.135 61.2246 110.135 59.8007Z" fill="black"/>
<path d="M114.924 59.9682V56.0759C114.924 55.0708 114.507 54.2553 113.029 54.2553C111.55 54.2553 111.134 55.0708 111.134 56.0759V59.9682C111.134 60.9777 111.55 61.7932 113.029 61.7932C114.507 61.7932 114.924 60.9777 114.924 59.9682ZM110.135 59.8007V56.2478C110.135 54.8107 110.825 53.6558 113.029 53.6558C115.232 53.6558 115.929 54.8107 115.929 56.2478V59.8007C115.929 61.229 115.289 62.3927 113.029 62.3927C110.768 62.3927 110.135 61.2246 110.135 59.8007Z" stroke="black" stroke-miterlimit="10"/>
<path d="M119.73 62.2644V53.77H120.758V61.6605H124.011V62.2644H119.73Z" fill="black"/>
<path d="M119.73 62.2644V53.77H120.758V61.6605H124.011V62.2644H119.73Z" stroke="black" stroke-miterlimit="10"/>
<path d="M131.729 59.9682V56.0759C131.729 55.0708 131.312 54.2553 129.834 54.2553C128.355 54.2553 127.939 55.0708 127.939 56.0759V59.9682C127.939 60.9777 128.355 61.7932 129.834 61.7932C131.312 61.7932 131.729 60.9777 131.729 59.9682ZM126.94 59.8007V56.2478C126.94 54.8107 127.63 53.6558 129.834 53.6558C132.037 53.6558 132.734 54.8107 132.734 56.2478V59.8007C132.734 61.229 132.094 62.3927 129.834 62.3927C127.573 62.3927 126.94 61.2246 126.94 59.8007Z" fill="black"/>
<path d="M131.729 59.9682V56.0759C131.729 55.0708 131.312 54.2553 129.834 54.2553C128.355 54.2553 127.939 55.0708 127.939 56.0759V59.9682C127.939 60.9777 128.355 61.7932 129.834 61.7932C131.312 61.7932 131.729 60.9777 131.729 59.9682ZM126.94 59.8007V56.2478C126.94 54.8107 127.63 53.6558 129.834 53.6558C132.037 53.6558 132.734 54.8107 132.734 56.2478V59.8007C132.734 61.229 132.094 62.3927 129.834 62.3927C127.573 62.3927 126.94 61.2246 126.94 59.8007Z" stroke="black" stroke-miterlimit="10"/>
<path d="M136.37 59.8888V56.2874C136.37 54.9297 136.963 53.6514 139.378 53.6514C141.656 53.6514 142.107 54.9738 142.118 56.4814V56.5387H141.113V56.477C141.113 55.3705 141.028 54.2509 139.361 54.2509C137.831 54.2509 137.369 55.0884 137.369 55.9656V60.2062C137.369 60.9953 137.751 61.7843 139.327 61.7843C140.794 61.7843 141.108 60.9512 141.108 60.2062V58.7692H139.715V58.2005H142.112V62.2516H141.667L141.37 61.4229C141.068 62.0136 140.223 62.3838 139.31 62.3838C136.512 62.3838 136.358 60.6691 136.358 59.88" fill="black"/>
<path d="M136.37 59.8888V56.2874C136.37 54.9297 136.963 53.6514 139.378 53.6514C141.656 53.6514 142.107 54.9738 142.118 56.4814V56.5387H141.113V56.477C141.113 55.3705 141.028 54.2509 139.361 54.2509C137.831 54.2509 137.369 55.0884 137.369 55.9656V60.2062C137.369 60.9953 137.751 61.7843 139.327 61.7843C140.794 61.7843 141.108 60.9512 141.108 60.2062V58.7692H139.715V58.2005H142.112V62.2516H141.667L141.37 61.4229C141.068 62.0136 140.223 62.3838 139.31 62.3838C136.512 62.3838 136.358 60.6691 136.358 59.88" stroke="black" stroke-miterlimit="10"/>
<path d="M147.529 62.2644V59.6283L145.001 53.77H146.137L148.032 58.8657C148.854 56.6661 149.093 55.974 149.927 53.77H151L148.551 59.6283V62.2644H147.529Z" fill="black"/>
<path d="M147.529 62.2644V59.6283L145.001 53.77H146.137L148.032 58.8657C148.854 56.6661 149.093 55.974 149.927 53.77H151L148.551 59.6283V62.2644H147.529Z" stroke="black" stroke-miterlimit="10"/>
</svg>
