<svg width="222" height="147" viewBox="0 0 222 147" fill="none" xmlns="http://www.w3.org/2000/svg">
<path d="M91.5999 81.3999C88.3999 81.3999 85.4 83.6999 84.5 86.8999L77.5999 113.1L65.0999 5.3999C64.4999 0.299902 60.2 0 59.7 0C59.6 0 59.2998 -2.44156e-05 58.7998 0.0999756C58.3998 -2.44156e-05 58.1 0 58 0C57.5 0.1 53.2 0.4 52.7 5.5L41.7 113.3L34.3999 87.2999C33.4999 84.0999 30.5 81.8999 27.2 81.8999L0 82.1L0.0998535 92.7L24.7998 92.5L38.5999 141.6C39.6999 145.1 42.4999 146.2 44.5999 146C46.6999 145.8 49.2999 144.3 49.5999 140.6L59.2 46.7L70.0999 140.4C70.4999 144.1 73.1 145.6 75.2 145.8C77.2999 145.9 80.0999 144.8 81.0999 141.2L94.2 92L220.5 91.1L220.4 80.5L91.5999 81.3999Z" fill="#FF5900"/>
<path fill-rule="evenodd" clip-rule="evenodd" d="M166.7 3.59914H178.1L178.6 75.7991L167.3 75.8991L166.7 3.59914ZM185.5 20.7991C185.4 9.19909 191.4 2.59917 202.6 2.49917C213.7 2.39917 219.8 8.99917 219.9 20.4992L220.2 58.0991C220.3 69.5991 214.3 76.2991 203.1 76.3991C192 76.3991 185.8 69.8991 185.7 58.2991L185.5 20.7991ZM197.2 58.9992C197.2 64.1992 199.5 66.0991 203.1 66.0991C206.7 66.0991 209 64.0991 208.9 58.8991L208.7 19.8991C208.6 14.7991 206.3 12.7991 202.7 12.8991C199.1 12.8991 196.8 14.8992 196.9 19.9992L197.2 58.9992ZM105.7 103.299H102.6L102.7 117.799H100.6L100.5 103.299L97.5 103.399L97.3999 101.499H105.6L105.7 103.299ZM116 115.799V117.599L109.8 117.699L109.7 101.399L115.9 101.299V103.199H111.8L111.9 108.399L114.8 108.299V110.099H111.9V115.799H116ZM128.9 111.599V112.699C128.9 114.199 128.7 115.399 128.2 116.199C127.533 117.266 126.467 117.799 125 117.799H124.9C123.367 117.799 122.233 117.299 121.5 116.299C120.9 115.499 120.6 114.299 120.6 112.699L120.5 106.199C120.5 101.999 122.9 101.099 124.8 101.099C126.3 101.099 127.3 101.599 128 102.599C128.6 103.466 128.9 104.666 128.9 106.199V107.199H126.8V105.899C126.8 103.299 125.8 102.899 124.9 102.899H124.8C124 102.899 123.433 103.166 123.1 103.699C122.767 104.166 122.633 104.899 122.7 105.899V112.999C122.7 114.199 122.933 115.033 123.4 115.499C123.733 115.833 124.233 115.999 124.9 115.999C125.9 115.999 126.9 115.599 126.9 112.999V111.599H128.9ZM142.4 101.199L142.5 117.499H140.4L140.3 109.899L136.3 109.999L136.4 117.499H134.2L134.1 101.199H136.2L136.3 108.299L140.3 108.199V101.199H142.4ZM155.9 101.099L156 117.399H154.4L150 106.899V117.399L148.1 117.499L148 101.199L149.7 101.099L154.1 111.899L154 101.099H155.9Z" fill="black"/>
<path fill-rule="evenodd" clip-rule="evenodd" d="M169.9 105.898V112.398C169.9 115.798 168.5 117.499 165.6 117.599C162.7 117.599 161.3 115.899 161.2 112.499V105.999C161.2 101.699 163.5 100.798 165.5 100.798C167.033 100.798 168.167 101.298 168.9 102.298C169.567 103.165 169.9 104.365 169.9 105.898ZM165.5 102.698C164.6 102.698 163.3 102.999 163.3 105.599L163.4 112.798C163.4 115.398 164.6 115.698 165.6 115.698C166.6 115.698 167.8 115.398 167.8 112.698V105.599C167.7 102.999 166.5 102.698 165.5 102.698ZM181.8 115.398V117.198L175.3 117.298L175.2 100.999L177.3 100.898L177.4 115.398H181.8ZM194.5 105.798L194.6 112.298C194.6 115.698 193.166 117.398 190.3 117.398H190.2C187.4 117.398 185.9 115.698 185.9 112.298V105.798C185.8 101.598 188.2 100.698 190.2 100.698C193 100.698 194.5 102.398 194.5 105.798ZM192.4 105.499C192.4 104.499 192.233 103.765 191.9 103.298C191.567 102.765 191 102.499 190.2 102.499C189.2 102.499 188 102.799 188 105.499V112.599C188 115.299 189.3 115.599 190.2 115.599H190.3C191.2 115.599 192.5 115.299 192.5 112.599L192.4 105.499ZM208.2 108.898L208.3 117.099H207L206.8 116.099C206.2 116.899 205.2 117.298 204.1 117.398C202.1 117.398 199.7 116.498 199.7 112.398L199.6 105.798C199.6 104.332 199.9 103.165 200.5 102.298C201.233 101.165 202.433 100.599 204.1 100.599C207.7 100.599 208.2 103.699 208.2 106.099V106.599H206.1V106.099C206.1 105.199 206.1 104.199 205.8 103.499C205.5 102.799 205 102.398 204.1 102.398C203.233 102.398 202.6 102.698 202.2 103.298C201.9 103.698 201.7 104.398 201.7 105.198L201.8 112.999C201.8 113.799 201.966 114.398 202.3 114.798C202.633 115.265 203.233 115.499 204.1 115.499C205.5 115.499 206.2 114.665 206.2 112.999L206.1 110.698H204.2V108.898H208.2ZM217.9 111.898V116.999L215.8 117.099L215.7 111.898L212.1 100.798H214.4L216.8 108.999C217 107.999 217.3 107.198 217.5 106.398C217.9 104.798 218.3 103.399 218.9 100.999L219 100.698H221.2L217.9 111.898Z" fill="black"/>
<path fill-rule="evenodd" clip-rule="evenodd" d="M94.3999 4.20002L94.7998 59.9C94.8998 65 97.0998 66.9 100.8 66.9C104.4 66.8 106.6 65 106.6 59.8L106.2 4.10005L116.9 4.00007L117.3 59.0001C117.4 70.6001 111.7 77.2 100.5 77.3C89.4 77.4 83.5 70.8 83.5 59.3L83.0999 4.3L94.3999 4.20002ZM124.6 3.89998L142.5 3.8C153.9 3.7 159.5 10.0001 159.6 21.5001L159.9 58.1C160 69.6001 154.4 75.9001 143.1 76.0001L125.1 76.2L124.6 3.89998ZM136 14.1L136.4 65.7L142.8 65.6C146.4 65.6 148.6 63.7 148.5 58.6L148.3 21.0001C148.2 15.9001 146.1 14 142.4 14.1H136Z" fill="black"/>
</svg>
