<svg width="169" height="112" viewBox="0 0 169 112" fill="none" xmlns="http://www.w3.org/2000/svg">
<path fill-rule="evenodd" clip-rule="evenodd" d="M72.3999 3.29993L72.7 45.7C72.8 49.6 74.4998 51 77.2998 51C79.9998 51 81.7 49.5 81.7 45.6L81.3999 3.19995L89.5999 3.09998L89.8999 45C89.8999 53.8 85.5999 58.8999 77.0999 58.8999C68.5999 58.9999 64.1999 54 64.0999 45.2L63.7998 3.29993H72.3999ZM95.3999 3.09998L109.1 3C117.7 3 122 7.7 122.1 16.5L122.3 44.3999C122.3 53.1999 118.1 58 109.5 58.1L95.7998 58.2L95.3999 3.09998ZM104.1 10.7999L104.4 50.1H109.3C112 50.1 113.7 48.7 113.6 44.7L113.4 16.1C113.4 12.2 111.7 10.7999 109 10.7999H104.1Z" fill="black"/>
<path d="M70.2998 62.0996C67.7998 62.0996 65.5999 63.8996 64.8999 66.2996L59.5999 86.1996L50.0999 4.19958C49.5999 0.299585 46.4 0.0996094 46 0.0996094C45.9 0.0996094 45.6998 0.099585 45.2998 0.199585C44.9998 0.099585 44.7999 0.0996094 44.7 0.0996094C44.2999 0.0996094 41.1 0.39956 40.7 4.29956L32.2998 86.3995L26.7 66.4996C26 64.0996 23.6998 62.3995 21.2998 62.3995L0.5 62.5996L0.599854 70.6996L19.3999 70.4996L30 107.9C30.7 110.6 32.9 111.4 34.5 111.3C36.1 111.1 37.9998 110 38.2998 107.1L45.5999 35.5996L53.8999 107C54.1999 109.8 56.1998 111 57.7998 111.1C59.3998 111.2 61.4998 110.4 62.2998 107.6L72.2 70.0996L168.4 69.3995V61.3995L70.2998 62.0996Z" fill="#FF5900"/>
<path fill-rule="evenodd" clip-rule="evenodd" d="M127.5 2.8999L136.2 2.79993L136.6 57.7999L127.9 57.8999L127.5 2.8999ZM141.8 16C141.8 7.2 146.4 2.1 154.8 2C163.3 2 168 6.99993 168.1 15.7999L168.3 44.3999C168.3 53.1999 163.7 58.1999 155.3 58.2999C146.8 58.3999 142.1 53.4 142 44.6L141.8 16ZM150.7 45C150.7 49 152.5 50.4999 155.2 50.3999C158 50.3999 159.7 48.9 159.6 45L159.4 15.2999C159.4 11.3999 157.7 9.8999 154.9 9.8999C152.2 9.8999 150.4 11.3999 150.5 15.2999L150.7 45ZM81 78.7999H78.5999L78.7 89.7999H77.0999L77 78.7999H74.7V77.3999H81V78.7999ZM88.7 88.2999L88.7998 89.7H84.0999L84 77.2999H88.7V78.7H85.5999V82.6H87.7998V84H85.5999L85.7 88.2999H88.7ZM98.5 85.1V85.8999C98.5 87.0999 98.2999 88 97.8999 88.6C97.3666 89.4 96.5667 89.8332 95.5 89.8999H95.3999C94.2666 89.8999 93.3998 89.5 92.7998 88.7C92.3998 88.0333 92.2 87.1333 92.2 86L92.0999 81C92.0999 77.8 93.8999 77.1 95.3999 77.1C96.4999 77.1 97.2998 77.4999 97.7998 78.2999C98.2665 78.8999 98.5 79.8 98.5 81V81.7H96.8999V80.7C96.8999 78.7999 96.0999 78.5 95.3999 78.5C94.7999 78.5 94.3665 78.7 94.0999 79.1C93.8332 79.5 93.7 80.0666 93.7 80.7999L93.7998 86.2C93.7998 87.1333 93.9665 87.7666 94.2998 88.1C94.5665 88.3666 94.9332 88.5 95.3999 88.5H95.5C96.2 88.4 96.9999 88.2 96.8999 86.2V85.1H98.5ZM108.8 77.2L108.9 89.6H107.3V83.7999L104.2 83.8999V89.6H102.6L102.5 77.2H104.1L104.2 82.6H107.3L107.2 77.2H108.8ZM119.1 77.1L119.2 89.5H117.9L114.6 81.5L114.7 89.6H113.2L113.1 77.2H114.4L117.7 85.2999V77.1H119.1Z" fill="black"/>
<path fill-rule="evenodd" clip-rule="evenodd" d="M129.9 80.6996V85.6996C129.967 88.2996 128.9 89.5996 126.7 89.5996H126.6C124.467 89.5996 123.366 88.2996 123.3 85.6996V80.7996C123.3 77.5996 125.1 76.8995 126.6 76.8995C127.733 76.8995 128.6 77.2663 129.2 77.9996C129.667 78.6663 129.9 79.5663 129.9 80.6996ZM126.6 78.2996C125.8 78.2996 124.9 78.4996 124.9 80.4996V85.9996C125 87.9996 125.9 88.1996 126.6 88.1996C127.4 88.1996 128.3 87.9995 128.3 85.8995V80.4996C128.3 78.4996 127.3 78.2996 126.6 78.2996ZM139 87.8995V89.2996L134.1 89.3995L134 76.9996H135.6L135.7 87.9996L139 87.8995ZM148.6 80.4996L148.7 85.4996C148.7 88.0996 147.6 89.3995 145.4 89.3995H145.3C143.166 89.3995 142.1 88.0996 142.1 85.4996L142 80.5996C142 77.2996 143.8 76.5996 145.3 76.5996C147.5 76.5996 148.6 77.9996 148.6 80.4996ZM147 80.2996C147 79.5662 146.867 78.9996 146.6 78.5996C146.333 78.1996 145.9 77.9996 145.3 77.9996C144.6 77.9996 143.6 78.2996 143.6 80.2996L143.7 85.6996C143.7 87.7996 144.6 87.9996 145.4 87.9996C146.1 87.9996 147.1 87.6996 147.1 85.6996L147 80.2996ZM159 82.8995L159.1 89.0996L158.1 89.1996L157.9 88.3995C157.5 88.9995 156.7 89.2995 155.9 89.3995C154.3 89.3995 152.5 88.6996 152.5 85.5996V80.5996C152.5 79.3996 152.7 78.4995 153.1 77.8995C153.7 77.0329 154.633 76.5996 155.9 76.5996C158.6 76.5996 159 78.9996 159 80.7996V81.1996H157.4V80.7996C157.4 80.0996 157.4 79.2996 157.2 78.7996C156.9 78.1996 156.5 77.9996 155.9 77.9996C155.233 77.9996 154.733 78.1996 154.4 78.5996C154.2 78.9996 154.1 79.4996 154.1 80.0996V85.9996C154.1 86.5996 154.233 87.0662 154.5 87.3995C154.767 87.7995 155.233 87.9996 155.9 87.9996C156.967 87.933 157.5 87.2663 157.5 85.9996L157.4 84.2996H156V82.9996L159 82.8995ZM166.3 85.0996V88.9996H164.7V85.0996L162 76.5996H163.7L165.5 82.8995C165.7 82.1995 165.9 81.4995 166 80.8995C166.3 79.6995 166.6 78.5996 167.1 76.7996L167.2 76.5996H168.9L166.3 85.0996Z" fill="black"/>
</svg>
