<svg width="112" height="74" viewBox="0 0 112 74" fill="none" xmlns="http://www.w3.org/2000/svg">
<path fill-rule="evenodd" clip-rule="evenodd" d="M48.2998 2.09834L48.5 30.0983C48.5 32.5983 49.6 33.5983 51.5 33.5983C53.3 33.4983 54.3999 32.5984 54.3999 29.9984L54.2 2.09834L59.5999 1.99837L59.7998 29.5983C59.7998 35.3983 56.8998 38.7983 51.2998 38.7983C45.6998 38.7983 42.7998 35.4983 42.7998 29.6983L42.5999 2.09834H48.2998ZM63.3999 1.99837H72.5C78.2 1.89837 81 5.09827 81 10.8983L81.0999 29.1983C81.1999 34.9983 78.4 38.1983 72.7 38.1983L63.7 38.2983L63.3999 1.99837ZM69.0999 7.09834L69.2998 32.9984H72.5C74.4 32.9984 75.3999 31.9983 75.3999 29.3983L75.2998 10.5983C75.2998 7.99834 74.1999 7.09834 72.3999 7.09834H69.0999Z" fill="black"/>
<path d="M46.8999 40.8999C45.1999 40.8999 43.6998 42 43.2998 43.6L39.7998 56.7L33.5 2.69995C33.2 0.199951 31.0999 0 30.8999 0C30.7999 0 30.5999 -2.44156e-05 30.3999 0.0999756C30.1999 0.0333089 30.0667 0 30 0C29.7 0 27.5998 0.199927 27.2998 2.79993L21.7998 56.8999L18.2 43.7999C17.7 42.1999 16.1999 41.1 14.5999 41.1L0.899902 41.2V46.5L13.3999 46.3999L20.2998 71C20.7998 72.8 22.1998 73.3999 23.2998 73.2999C24.2998 73.1999 25.5998 72.4 25.7998 70.6L30.5999 23.3999L36.0999 70.5C36.2999 72.3 37.5999 73.1 38.5999 73.2C39.6999 73.2 41.0999 72.6999 41.5999 70.8999L48.2 46.2L111.5 45.7V40.3999L46.8999 40.8999Z" fill="#FF5900"/>
<path fill-rule="evenodd" clip-rule="evenodd" d="M84.5999 1.79919H90.2998L90.5 37.9993L84.7998 38.0992L84.5999 1.79919ZM94.0999 10.3992C93.9999 4.59917 97.0999 1.29922 102.6 1.19922C108.2 1.19922 111.3 4.49919 111.4 10.2992L111.5 29.0992C111.5 34.8992 108.5 38.2992 102.9 38.2992C97.2999 38.3992 94.2 35.0992 94.2 29.2992L94.0999 10.3992ZM99.8999 29.4993C99.9999 32.0993 101.1 33.0992 102.9 33.0992C104.7 33.0992 105.9 32.0993 105.8 29.4993L105.7 9.89917C105.7 7.29917 104.5 6.29917 102.7 6.39917C100.9 6.39917 99.7998 7.39927 99.7998 9.99927L99.8999 29.4993ZM54 51.6992H52.3999L52.5 58.8992H51.3999V51.6992H49.8999L49.7998 50.7992L54 50.6992V51.6992ZM59.0999 57.9993V58.9993H56L55.8999 50.7992H59V51.6992H57V54.2992H58.5V55.1992H57L57.0999 57.9993H59.0999ZM65.5 55.8992V56.4993C65.5 57.2326 65.3665 57.8325 65.0999 58.2992C64.7665 58.8325 64.2333 59.0992 63.5 59.0992C62.7667 59.0992 62.1998 58.8325 61.7998 58.2992C61.5331 57.8992 61.3999 57.2993 61.3999 56.4993L61.2998 53.1992C61.2998 51.0992 62.5 50.6992 63.5 50.6992C64.2333 50.6992 64.7665 50.9325 65.0999 51.3992C65.3665 51.8658 65.5 52.4659 65.5 53.1992V53.6992H64.5V53.0992C64.5 51.7992 64 51.5992 63.5 51.5992C63.1 51.5992 62.7999 51.7326 62.5999 51.9993C62.4665 52.1993 62.3999 52.5659 62.3999 53.0992V56.6992C62.3999 57.2326 62.5331 57.6325 62.7998 57.8992C62.9331 58.0325 63.1667 58.0992 63.5 58.0992C64 58.0992 64.5 57.9992 64.5 56.5992V55.8992H65.5ZM72.2998 50.6992L72.3999 58.8992H71.2998V55.0992H69.2L69.2998 58.8992H68.2L68.0999 50.6992H69.2V54.2992L71.2998 54.1992L71.2 50.6992H72.2998ZM79.0999 50.6992L79.2 58.7992H78.2998L76.0999 53.5992L76.2 58.8992H75.2L75.0999 50.6992H76L78.2 56.0992V50.6992H79.0999Z" fill="black"/>
<path fill-rule="evenodd" clip-rule="evenodd" d="M86.0999 53.1985L86.2 56.3984C86.2 58.1318 85.4667 58.9985 84 58.9985C82.5333 58.9985 81.7998 58.1652 81.7998 56.4985V53.1985C81.7998 51.0985 82.8999 50.5985 83.8999 50.5985H84C84.7333 50.5985 85.3 50.8651 85.7 51.3984C85.9666 51.7984 86.0999 52.3985 86.0999 53.1985ZM82.7998 52.9985L82.8999 56.5985C82.8999 57.8985 83.5 58.0985 84 58.0985C84.5 58.0985 85.0999 57.8985 85.0999 56.5985V52.9985C85.0999 51.6985 84.4 51.4985 84 51.4985C83.5 51.4985 82.7998 51.6985 82.7998 52.9985ZM92.0999 57.8984V58.7985H88.8999L88.7998 50.6985H89.8999V57.8984H92.0999ZM98.5 53.0985V56.2985C98.5 58.0318 97.7999 58.8984 96.3999 58.8984H96.2998C94.8998 58.8984 94.2 58.0651 94.2 56.3984L94.0999 53.0985C94.0999 50.9985 95.2998 50.4985 96.2998 50.4985C97.6998 50.4985 98.5 51.3985 98.5 53.0985ZM97.3999 52.8984C97.3999 52.4318 97.3333 52.0651 97.2 51.7985C97 51.5318 96.6998 51.3984 96.2998 51.3984C95.7998 51.4984 95.2 51.5984 95.2 52.8984V56.4985C95.2 57.7985 95.8998 57.9985 96.2998 57.9985H96.3999C96.7999 57.9985 97.5 57.7985 97.5 56.4985L97.3999 52.8984ZM105.3 54.5985L105.4 58.6985H104.7L104.6 58.2985C104.3 58.5985 103.8 58.8984 103.2 58.8984C102.2 58.8984 101 58.3984 101 56.3984V53.0985C101 52.2985 101.133 51.6985 101.4 51.2985C101.8 50.7651 102.4 50.4985 103.2 50.4985C105.1 50.4985 105.3 51.9985 105.3 53.1985V53.4985H104.3V53.1985C104.2 52.6985 104.2 52.2984 104.1 51.8984C103.9 51.4984 103.7 51.3984 103.2 51.3984C102.8 51.3984 102.5 51.5318 102.3 51.7985C102.1 52.0651 102 52.3985 102 52.7985L102.1 56.6985C102.1 57.0985 102.166 57.3985 102.3 57.5985C102.5 57.7985 102.8 57.8984 103.2 57.8984C103.933 57.8984 104.3 57.4985 104.3 56.6985V55.4985H103.3V54.5985H105.3ZM110.1 56.0985L110.2 58.6985H109.1V56.0985L107.3 50.4985H108.4L109.6 54.6985C109.7 54.1985 109.8 53.7984 109.9 53.3984C110.2 52.5984 110.3 51.8985 110.7 50.6985V50.4985H111.8L110.1 56.0985Z" fill="black"/>
</svg>
